<?xml version="1.0" encoding="UTF-8" standalone="no"?><!DOCTYPE svg PUBLIC "-//W3C//DTD SVG 1.1//EN" "http://www.w3.org/Graphics/SVG/1.1/DTD/svg11.dtd"><svg width="100%" height="100%" viewBox="0 0 512 512" version="1.1" xmlns="http://www.w3.org/2000/svg" xmlns:xlink="http://www.w3.org/1999/xlink" xml:space="preserve" xmlns:serif="http://www.serif.com/" style="fill-rule:evenodd;clip-rule:evenodd;stroke-linejoin:round;stroke-miterlimit:2;"><rect x="0" y="0" width="512" height="512"/><g><g><g><path d="M113.39,260.881c0.068,2.972 1.018,5.162 2.847,6.575c1.83,1.41 4.135,2.113 6.914,2.1c3.65,0.012 7.197,-1.095 10.642,-3.32c3.445,-2.228 6.043,-5.638 7.795,-10.237c3.118,-10.029 7.863,-20.198 14.233,-30.501c6.373,-10.303 13.558,-15.86 21.555,-16.672c2.43,0.044 4.213,0.902 5.355,2.576c1.142,1.671 1.705,3.883 1.693,6.64c-0.09,2.713 -0.451,5.424 -1.083,8.134l-32.536,94.349c-0.451,1.627 -0.632,3.255 -0.541,4.882c0.022,2.779 0.927,5.081 2.71,6.911c1.786,1.83 4.316,2.779 7.593,2.847l11.93,0c4.226,-0.1 8.246,-1.525 12.064,-4.269c3.818,-2.745 6.485,-6.202 7.997,-10.371l31.994,-94.349c1.805,-4.518 4.832,-8.495 9.08,-11.93c4.247,-3.432 8.632,-5.24 13.15,-5.421c2.43,0.056 4.213,0.893 5.355,2.508c1.142,1.615 1.705,3.672 1.696,6.167c0,1.378 -0.137,2.825 -0.408,4.338c-0.271,1.515 -0.678,2.959 -1.22,4.338l-26.571,94.349c-0.283,0.79 -0.532,1.515 -0.744,2.169c-0.215,0.657 -0.33,1.378 -0.339,2.169c0.031,3.04 1.049,5.501 3.049,7.39c1.998,1.886 4.776,2.857 8.336,2.913l11.93,0c4.213,-0.1 8.121,-1.525 11.725,-4.269c3.603,-2.745 6.021,-6.202 7.253,-10.371l27.112,-94.349c1.559,-4.518 4.406,-8.495 8.538,-11.93c4.135,-3.432 8.339,-5.24 12.609,-5.421c2.688,0.068 4.63,1.018 5.828,2.847c1.198,1.83 1.786,4.132 1.764,6.914c-0.093,2.259 -0.454,4.789 -1.086,7.589l-21.147,89.47c-0.632,2.079 -0.996,4.428 -1.086,7.048c0.012,5.253 1.481,9.525 4.406,12.811c2.925,3.289 7.241,4.982 12.948,5.084c20.017,-1.344 38.408,-8.009 55.173,-19.996c16.763,-11.986 25.665,-21.228 26.704,-27.722c-0.056,-2.474 -0.893,-4.44 -2.508,-5.897c-1.615,-1.456 -3.672,-2.203 -6.167,-2.237c-5.265,0.905 -11.14,4.518 -17.625,10.844c-6.485,6.326 -12.901,9.942 -19.249,10.844c-1.108,-0.009 -2.01,-0.395 -2.71,-1.151c-0.7,-0.756 -1.064,-1.817 -1.086,-3.186c-0.09,-0.632 0.09,-1.534 0.541,-2.71l18.981,-80.792c0.28,-1.378 0.529,-2.825 0.744,-4.341c0.215,-1.512 0.327,-2.959 0.339,-4.338c-0.193,-9.904 -3.196,-18.695 -9.015,-26.365c-5.819,-7.67 -13.296,-11.715 -22.435,-12.132c-7.941,0.078 -15.782,1.954 -23.518,5.626c-7.739,3.672 -14.902,8.663 -21.486,14.98c-1.64,-6.077 -4.328,-11.003 -8.069,-14.777c-3.737,-3.771 -8.461,-5.716 -14.164,-5.828c-7.941,0.068 -15.782,1.83 -23.521,5.287c-7.736,3.457 -14.899,8.202 -21.486,14.233c-1.624,-5.794 -4.201,-10.471 -7.726,-14.031c-3.526,-3.557 -7.997,-5.386 -13.421,-5.489c-18.371,0.865 -34.406,7.633 -48.097,20.304c-13.695,12.674 -24.346,26.067 -31.954,40.187c-7.608,14.118 -11.47,23.776 -11.588,28.979Z" style="fill:#fff;fill-rule:nonzero;"/></g></g></g></svg>